<?xml version="1.0" standalone="no"?>
<!DOCTYPE svg PUBLIC "-//W3C//DTD SVG 20010904//EN"
 "http://www.w3.org/TR/2001/REC-SVG-20010904/DTD/svg10.dtd">
<svg version="1.0" xmlns="http://www.w3.org/2000/svg"
 width="700.000000pt" height="700.000000pt" viewBox="0 0 700.000000 700.000000"
 preserveAspectRatio="xMidYMid meet">
<metadata>
Created by potrace 1.14, written by Peter Selinger 2001-2017
</metadata>
<g transform="translate(0.000000,700.000000) scale(0.100000,-0.100000)"
fill="#000000" stroke="none">
<path d="M1686 5923 c-2 -2 -19 -6 -37 -8 -477 -61 -883 -454 -965 -936 -3
-19 -96 -118 -297 -320 -268 -270 -295 -300 -329 -369 -46 -94 -58 -156 -54
-262 4 -94 35 -189 87 -264 17 -25 306 -321 643 -657 l611 -612 1 -100 c1 -55
5 -117 8 -138 48 -301 247 -545 527 -648 99 -36 180 -50 296 -51 l95 0 97 -89
c277 -257 605 -389 979 -394 106 -1 160 3 272 19 199 30 469 148 630 275 83
66 102 85 487 466 211 209 388 381 393 383 4 2 183 -172 397 -386 213 -214
398 -394 410 -400 15 -9 30 -9 48 -2 15 6 250 233 522 506 493 493 495 496
490 531 -5 28 -30 59 -129 157 -68 67 -145 139 -171 159 -118 90 -314 101
-443 25 l-36 -21 -71 71 c-67 67 -70 72 -45 72 37 0 76 38 82 80 3 19 10 73
16 120 6 47 13 96 15 110 7 49 15 106 20 150 4 25 8 56 10 70 2 14 7 50 10 80
3 30 8 62 10 70 2 8 6 35 9 60 3 25 7 61 10 80 3 19 10 71 16 115 6 44 13 91
15 105 2 14 7 50 11 80 4 30 8 64 9 75 2 11 8 56 15 100 24 156 13 191 -61
201 -19 2 -61 9 -94 14 -131 21 -174 24 -270 25 -92 0 -105 -3 -167 -32 -86
-41 -157 -107 -198 -186 -18 -34 -33 -63 -34 -63 -1 -1 -28 2 -61 7 -33 5 -80
11 -105 14 -25 3 -56 8 -70 10 -14 2 -61 9 -106 15 -44 6 -90 12 -102 15 -11
2 -45 6 -74 10 -57 7 -73 9 -158 20 -61 9 -109 13 -157 14 l-33 1 0 195 c0
225 -7 269 -62 385 -125 263 -435 389 -714 290 -160 -56 -295 -191 -350 -349
-32 -94 -35 -121 -36 -368 l0 -223 -143 0 -142 0 -146 146 c-81 80 -147 147
-147 148 0 0 6 34 14 73 24 126 21 288 -9 444 -45 240 -224 514 -440 674 -127
94 -333 184 -460 201 -27 3 -54 9 -59 12 -11 6 -274 11 -280 5z m364 -174
c317 -78 582 -319 694 -628 44 -121 60 -222 59 -361 l-1 -75 -43 -39 c-131
-116 -313 -205 -483 -236 -113 -21 -342 -2 -334 27 5 17 -15 89 -34 128 -66
128 -182 204 -319 209 -63 2 -64 3 -82 38 -27 56 -47 164 -47 265 0 229 91
450 266 642 l58 64 90 -7 c50 -3 129 -15 176 -27z m-546 -73 c-184 -264 -241
-616 -145 -890 l21 -59 -23 -15 c-47 -32 -106 -102 -132 -158 -40 -85 -44
-203 -8 -292 35 -86 106 -163 191 -204 61 -30 75 -33 157 -33 121 1 189 28
266 104 30 31 64 76 75 99 18 43 20 44 54 37 19 -4 89 -9 155 -11 204 -6 377
42 579 161 25 15 46 24 46 20 0 -3 -18 -43 -41 -88 -80 -161 -189 -285 -345
-393 -70 -49 -238 -122 -319 -138 -16 -4 -41 -9 -55 -12 -14 -3 -79 -7 -145
-10 -456 -15 -869 293 -987 736 -43 164 -42 343 2 513 79 300 295 541 599 668
102 43 107 39 55 -35z m2718 -654 c100 -36 193 -114 238 -202 l20 -40 -400 0
c-220 0 -400 2 -400 5 0 3 15 30 33 58 62 96 177 177 280 196 67 12 168 5 229
-17z m-3544 -391 c11 -80 39 -193 61 -246 41 -95 81 -172 127 -241 95 -144
267 -297 422 -375 l57 -28 0 -151 c0 -82 -1 -150 -2 -150 -2 0 -224 221 -494
491 l-490 490 148 149 c81 82 151 149 154 150 3 0 11 -40 17 -89z m994 -28
c49 -27 68 -44 95 -87 29 -45 38 -133 20 -191 -15 -51 -73 -114 -125 -136
-216 -93 -416 159 -275 349 63 85 195 115 285 65z m2839 -5 c1 -41 1 -296 0
-320 -1 -10 -8 -18 -17 -18 -27 0 -146 -51 -218 -94 -84 -51 -202 -165 -252
-246 l-37 -61 -30 28 c-16 15 -92 91 -169 168 l-141 140 -2 210 c0 116 1 213
3 218 2 4 196 7 433 7 l429 0 1 -32z m-954 -931 l683 -683 -115 -114 -115
-114 -657 657 c-374 375 -653 661 -647 665 18 12 94 134 127 204 18 37 34 68
37 68 3 0 312 -308 687 -683z m2379 594 c-4 -32 -8 -67 -10 -78 -2 -10 -7 -43
-11 -73 -3 -30 -8 -66 -10 -80 -2 -14 -6 -47 -10 -75 -3 -27 -8 -61 -10 -75
-4 -23 -41 -295 -51 -365 -2 -16 -8 -64 -14 -105 -6 -41 -13 -100 -17 -130 -3
-30 -7 -57 -9 -59 -2 -2 -39 29 -81 70 -43 41 -105 92 -138 114 -62 41 -206
105 -238 105 -13 0 -16 6 -13 28 6 38 16 110 21 157 4 36 13 92 20 135 1 8 8
61 15 118 l13 104 51 -7 c28 -3 69 -8 90 -11 22 -3 42 -5 45 -6 42 -4 76 27
86 80 21 112 133 211 239 212 l39 0 -7 -59z m-5451 -176 c124 -124 225 -228
225 -231 0 -6 -249 -254 -255 -254 -12 0 -225 221 -248 257 -81 126 -73 313
17 421 16 17 30 32 32 32 2 0 105 -101 229 -225z m5718 205 c4 0 5 -12 3 -27
-3 -16 -8 -50 -11 -78 -4 -27 -13 -90 -20 -140 -8 -49 -17 -115 -20 -145 -3
-30 -8 -66 -10 -80 -2 -14 -7 -45 -10 -70 -4 -25 -8 -56 -10 -70 -2 -14 -9
-63 -15 -110 -6 -47 -13 -100 -16 -117 -2 -18 -6 -48 -8 -65 -7 -49 -27 -190
-31 -213 -2 -11 -4 -35 -4 -54 l-1 -34 -57 7 c-31 4 -59 8 -60 10 -3 3 18 185
31 266 5 29 16 111 22 155 2 17 8 62 13 100 6 39 13 88 16 110 3 22 16 123 30
225 14 102 28 203 31 225 2 22 6 49 9 60 2 11 4 28 4 39 1 16 7 18 54 12 28
-3 55 -6 60 -6z m-1512 -172 c1 -13 2 -36 3 -53 5 -84 -47 -215 -112 -280
-127 -127 -295 -158 -463 -87 l-37 15 20 44 c92 209 334 374 556 382 27 1 32
-3 33 -21z m229 -2 c19 -2 62 -8 95 -12 33 -4 62 -9 65 -9 7 -2 143 -19 155
-20 13 0 10 -44 -15 -210 -5 -33 -12 -82 -15 -110 -4 -27 -8 -61 -10 -75 -3
-14 -7 -51 -11 -82 -4 -32 -12 -58 -18 -58 -117 -5 -270 -29 -297 -46 -6 -3
-23 -9 -39 -14 -29 -8 -32 -5 -100 82 l-69 91 42 47 c86 96 137 228 138 359 1
65 2 69 22 66 12 -2 38 -6 57 -9z m-1177 -224 l178 -179 -14 -77 c-8 -42 -17
-79 -20 -82 -2 -3 -121 112 -264 256 l-260 260 101 0 101 0 178 -178z m-464
-614 l627 -626 -98 -100 c-104 -105 -116 -131 -83 -179 15 -22 66 -35 87 -22
7 5 199 194 426 421 l414 413 26 -35 c41 -54 100 -109 156 -145 52 -33 151
-72 196 -77 l25 -3 1 -282 1 -282 -412 -409 c-442 -440 -521 -508 -690 -591
-203 -100 -353 -135 -585 -135 -217 0 -361 29 -545 112 -81 36 -241 136 -304
190 l-35 29 235 1 c170 0 254 5 308 16 169 35 317 152 395 310 111 226 68 483
-109 661 -97 98 -210 155 -335 170 -30 4 -148 7 -262 8 l-208 1 0 421 c0 410
-1 422 -20 443 -12 12 -25 23 -30 23 -6 1 -16 2 -22 3 -26 4 -57 -18 -67 -46
-6 -17 -10 -197 -11 -461 l0 -432 -179 -179 -179 -179 -49 30 c-69 44 -130 70
-193 81 -65 12 -193 8 -233 -7 -16 -6 -29 -11 -31 -11 -2 0 0 1247 3 1267 1 9
8 10 24 4 24 -9 55 -16 137 -28 58 -9 242 -9 300 0 92 14 117 20 193 44 100
31 185 71 267 124 67 43 162 118 169 132 4 11 -28 43 690 -675z m-2418 430
c84 -80 88 -64 -52 -204 -68 -68 -127 -124 -130 -124 -3 0 -32 24 -64 54 l-57
54 129 130 c70 72 129 131 129 131 1 1 21 -18 45 -41z m3743 -225 l66 -87 -37
-30 c-21 -16 -95 -85 -164 -153 l-126 -124 -161 161 c-103 103 -159 167 -157
178 2 9 7 43 11 75 5 47 10 58 23 54 149 -43 166 -46 249 -43 62 2 107 10 157
28 39 14 71 26 72 27 1 0 31 -38 67 -86z m-3406 -110 l147 -148 0 -257 c0
-142 -1 -258 -3 -258 -8 0 -552 550 -552 558 0 12 239 252 251 252 5 0 76 -66
157 -147z m4137 -17 c64 -22 124 -50 154 -72 6 -5 -42 -69 -82 -107 -74 -70
-170 -108 -279 -109 -133 0 -258 66 -336 178 -25 36 -23 38 48 75 140 72 343
86 495 35z m283 -793 l-308 -308 -52 54 -53 54 0 274 c0 151 2 278 5 282 3 4
29 12 59 19 29 7 70 20 90 29 86 40 188 126 227 191 l19 32 160 -160 160 -160
-307 -307z m493 122 c93 -91 102 -92 189 -24 84 65 216 68 304 6 l28 -20 -428
-428 -428 -428 -180 180 -179 181 304 304 c167 167 306 304 308 304 3 0 39
-34 82 -75z m-3193 -543 c2 -406 1 -432 -15 -433 -71 -4 -744 -1 -748 3 -3 3
2 25 10 49 20 56 27 177 13 249 -5 30 -24 84 -41 120 -17 36 -31 68 -31 72 -1
8 200 213 305 313 l64 60 220 0 220 -1 3 -432z m205 372 c193 -120 266 -353
173 -556 -33 -72 -110 -156 -175 -192 l-51 -27 0 400 c0 221 2 401 5 401 3 0
24 -12 48 -26z m3661 -14 l39 -39 -426 -426 c-234 -234 -429 -425 -433 -425
-12 0 -74 62 -74 74 0 11 840 856 850 856 3 0 22 -18 44 -40z m-4959 -249
c168 -83 250 -276 194 -457 l-20 -65 -32 7 c-42 9 -132 53 -188 91 -128 89
-244 259 -265 391 -6 36 -4 40 22 50 45 17 74 21 153 17 57 -3 87 -10 136 -34z"/>
<path d="M1782 5620 c-48 -20 -54 -96 -9 -124 12 -8 54 -17 92 -20 60 -5 100
-13 200 -43 75 -23 196 -107 278 -192 44 -45 66 -61 86 -61 63 0 95 60 60 116
-44 73 -197 194 -309 247 -62 29 -168 63 -220 71 -78 13 -156 15 -178 6z"/>
<path d="M2515 5055 c-28 -27 -30 -41 -14 -100 23 -90 31 -101 87 -111 27 -5
72 35 72 65 0 11 -5 43 -11 72 -20 91 -83 126 -134 74z"/>
<path d="M1680 3040 c-32 -32 -30 -75 5 -106 22 -21 32 -22 214 -20 176 1 192
2 210 21 31 32 31 75 1 105 -19 19 -33 20 -215 20 -182 0 -196 -1 -215 -20z"/>
</g>
</svg>
