<svg width="76" height="67" viewBox="0 0 76 67" fill="none" xmlns="http://www.w3.org/2000/svg">
<path d="M65.9194 1.48441C66.8035 0.0843342 68.6243 -0.412888 70.1021 0.3722C71.5799 1.15729 72.1868 2.92374 71.5007 4.42849L53.4111 44.311C53.7014 44.6119 53.9785 44.9259 54.2424 45.24L67.0674 38.0826C68.4528 37.3106 70.1813 37.677 71.1444 38.92C72.1076 40.1631 71.9757 41.9295 70.8542 43.0417L59.375 54.4255H49.941C48.1993 49.5449 43.5153 46.0512 38 46.0512C32.4847 46.0512 27.7875 49.5449 26.059 54.4255H15.5431L5.58125 47.5952C4.30139 46.7186 3.85278 45.0306 4.53889 43.6305C5.225 42.2305 6.83472 41.5501 8.32569 42.008L21.1507 45.9858C21.5465 45.4755 21.9556 44.9783 22.391 44.5072L14.1708 30.9252C13.366 29.6036 13.6563 27.9026 14.8438 26.9082C16.0312 25.9137 17.7729 25.9268 18.9472 26.9213L32.4583 38.4228C32.6562 38.3705 32.8542 38.3181 33.0521 38.2789L34.8465 19.6069C35.0049 17.9974 36.3639 16.7675 38 16.7675C39.6361 16.7675 40.9951 17.9974 41.1535 19.6069L42.9347 38.1742L65.9194 1.48441ZM8.44444 58.6257H71.7778C74.1132 58.6257 76 60.4969 76 62.8129C76 65.1289 74.1132 67 71.7778 67H4.22222C1.88681 67 0 65.1289 0 62.8129C0 60.4969 1.88681 58.6257 4.22222 58.6257H8.44444ZM38 0.00582533C39.7549 0.00582533 41.1667 1.4059 41.1667 3.14618V9.42688C41.1667 11.1672 39.7549 12.5672 38 12.5672C36.2451 12.5672 34.8333 11.1672 34.8333 9.42688V3.14618C34.8333 1.4059 36.2451 0.00582533 38 0.00582533Z" fill="black"/>
</svg>
