<svg width="385" height="66" viewBox="0 0 385 66" fill="none" xmlns="http://www.w3.org/2000/svg">
<path d="M104 1V66H94V1H104Z" fill="#0AC6FF"/>
<path d="M135.655 42.7227C135.655 42.0879 135.541 41.4938 135.313 40.9404C135.102 40.387 134.736 39.8662 134.215 39.3779C133.678 38.9059 132.978 38.4746 132.115 38.084C131.269 37.6771 130.211 37.3027 128.941 36.9609C126.972 36.4238 125.239 35.7728 123.741 35.0078C122.26 34.2428 121.048 33.4046 120.104 32.4932C119.16 31.5817 118.443 30.5726 117.955 29.4658C117.483 28.359 117.247 27.1546 117.247 25.8525C117.247 24.3551 117.564 22.9961 118.199 21.7754C118.834 20.5547 119.713 19.513 120.836 18.6504C121.959 17.7878 123.285 17.1286 124.815 16.6729C126.345 16.2008 128.006 15.9648 129.796 15.9648C131.651 15.9648 133.344 16.2334 134.874 16.7705C136.42 17.3076 137.747 18.0563 138.854 19.0166C139.96 19.9932 140.823 21.1488 141.441 22.4834C142.06 23.818 142.369 25.2829 142.369 26.8779H135.68C135.647 26.0804 135.501 25.348 135.24 24.6807C134.996 24.0133 134.63 23.4355 134.142 22.9473C133.637 22.4753 133.01 22.109 132.262 21.8486C131.529 21.5719 130.667 21.4336 129.674 21.4336C128.762 21.4336 127.949 21.5475 127.232 21.7754C126.533 21.987 125.938 22.2881 125.45 22.6787C124.962 23.0856 124.588 23.5658 124.327 24.1191C124.083 24.6562 123.961 25.2422 123.961 25.877C123.961 26.5443 124.124 27.1465 124.449 27.6836C124.791 28.2207 125.279 28.7008 125.914 29.124C126.549 29.5635 127.314 29.9622 128.209 30.3203C129.12 30.6784 130.146 31.012 131.285 31.3213C132.506 31.6631 133.67 32.0781 134.776 32.5664C135.883 33.0547 136.9 33.6162 137.828 34.251C139.228 35.2926 140.343 36.5052 141.173 37.8887C142.003 39.2721 142.418 40.8672 142.418 42.6738C142.418 44.2363 142.101 45.6279 141.466 46.8486C140.847 48.0531 139.985 49.0703 138.878 49.9004C137.771 50.7467 136.453 51.3896 134.923 51.8291C133.393 52.2523 131.725 52.4639 129.918 52.4639C128.144 52.4639 126.386 52.2035 124.645 51.6826C122.919 51.1455 121.414 50.3643 120.128 49.3389C118.907 48.3298 117.939 47.1416 117.223 45.7744C116.523 44.4072 116.173 42.804 116.173 40.9648H122.911C122.944 42.0391 123.131 42.9587 123.473 43.7236C123.814 44.4886 124.295 45.1152 124.913 45.6035C125.515 46.0918 126.24 46.4499 127.086 46.6777C127.949 46.9056 128.893 47.0195 129.918 47.0195C130.829 47.0195 131.635 46.9137 132.335 46.7021C133.051 46.4906 133.653 46.1976 134.142 45.8232C134.63 45.4489 135.004 45.0013 135.265 44.4805C135.525 43.9434 135.655 43.3574 135.655 42.7227ZM153.277 38.9629V52H146.417V16.4531H158.575C160.512 16.4531 162.262 16.738 163.824 17.3076C165.387 17.861 166.721 18.6341 167.828 19.627C168.919 20.6361 169.757 21.8405 170.343 23.2402C170.945 24.64 171.246 26.1943 171.246 27.9033C171.246 29.4984 170.945 30.9714 170.343 32.3223C169.757 33.6732 168.919 34.8369 167.828 35.8135C166.721 36.8063 165.387 37.5794 163.824 38.1328C162.262 38.6862 160.512 38.9629 158.575 38.9629H153.277ZM153.277 33.3965H158.575C159.552 33.3965 160.398 33.25 161.114 32.957C161.83 32.6641 162.433 32.2653 162.921 31.7607C163.393 31.2562 163.743 30.6784 163.971 30.0273C164.215 29.36 164.337 28.6683 164.337 27.9521C164.337 27.1221 164.215 26.349 163.971 25.6328C163.743 24.9167 163.393 24.29 162.921 23.7529C162.433 23.2158 161.83 22.7926 161.114 22.4834C160.398 22.1742 159.552 22.0195 158.575 22.0195H153.277V33.3965ZM192.237 44.5781H181.568L179.469 52H172.242L183.888 16.4531H190.113L201.539 52H194.312L192.237 44.5781ZM183.253 38.7432H190.626L186.988 25.6572L183.253 38.7432ZM228.219 40.8672C228.105 42.6576 227.714 44.2689 227.047 45.7012C226.396 47.1335 225.517 48.3542 224.41 49.3633C223.303 50.3724 221.985 51.1536 220.455 51.707C218.925 52.2441 217.232 52.5127 215.377 52.5127C213.912 52.5127 212.553 52.3255 211.3 51.9512C210.063 51.5605 208.948 51.0072 207.955 50.291C207.044 49.6237 206.23 48.818 205.514 47.874C204.814 46.93 204.22 45.8883 203.731 44.749C203.259 43.6097 202.893 42.3564 202.633 40.9893C202.389 39.6221 202.267 38.1735 202.267 36.6436V31.8584C202.267 30.4261 202.381 29.0671 202.608 27.7812C202.836 26.4792 203.178 25.2747 203.634 24.168C204.155 22.8171 204.838 21.6126 205.685 20.5547C206.531 19.4967 207.491 18.6016 208.565 17.8691C209.526 17.2507 210.576 16.7786 211.715 16.4531C212.87 16.1113 214.107 15.9404 215.426 15.9404C217.379 15.9404 219.112 16.2171 220.626 16.7705C222.156 17.3239 223.458 18.1133 224.532 19.1387C225.606 20.1641 226.453 21.4173 227.071 22.8984C227.69 24.3796 228.08 26.0479 228.243 27.9033H221.407C221.342 26.8454 221.179 25.9176 220.919 25.1201C220.675 24.3226 220.317 23.6553 219.845 23.1182C219.356 22.5973 218.746 22.2067 218.014 21.9463C217.298 21.6696 216.435 21.5312 215.426 21.5312C214.889 21.5312 214.384 21.5882 213.912 21.7021C213.456 21.8161 213.033 21.987 212.643 22.2148C211.975 22.6055 211.406 23.167 210.934 23.8994C210.478 24.6156 210.112 25.4538 209.835 26.4141C209.623 27.1628 209.469 27.9928 209.371 28.9043C209.273 29.7995 209.225 30.7679 209.225 31.8096V36.6436C209.225 38.0596 209.298 39.3291 209.444 40.4521C209.607 41.5589 209.851 42.5273 210.177 43.3574C210.405 43.9271 210.673 44.4316 210.982 44.8711C211.308 45.3105 211.674 45.6768 212.081 45.9697C212.521 46.2952 213.009 46.5394 213.546 46.7021C214.099 46.8486 214.71 46.9219 215.377 46.9219C216.272 46.9219 217.078 46.8079 217.794 46.5801C218.51 46.3522 219.12 45.9941 219.625 45.5059C220.13 45.0176 220.528 44.391 220.821 43.626C221.114 42.861 221.293 41.9414 221.358 40.8672H228.219ZM254.19 36.4238H239.591V46.458H256.656V52H232.706V16.4531H256.583V22.0439H239.591V31.0039H254.19V36.4238Z" fill="white"/>
<path d="M294.636 52H287.8L277.912 29.0752V52H271.003V16.4531H277.912L287.727 39.2803L287.751 16.4531H294.636V52ZM321.853 36.4238H307.253V46.458H324.318V52H300.368V16.4531H324.245V22.0439H307.253V31.0039H321.853V36.4238ZM340.793 29.1973L347.116 16.4531H355.173L345.163 34.0801L355.417 52H347.409L340.891 39.0605L334.396 52H326.291L336.545 34.0801L326.56 16.4531H334.567L340.793 29.1973ZM383.659 22.0439H372.697V52H365.812V22.0439H354.997V16.4531H383.659V22.0439Z" fill="white"/>
<path d="M29.9285 15.3269C30.0318 15.6473 30.116 15.9768 30.179 16.3058C30.2602 16.7307 30.632 17.0262 31.0491 17.0262C31.1045 17.0262 31.1606 17.0211 31.2169 17.0103C31.6981 16.9183 32.0133 16.4535 31.9213 15.9724C31.8446 15.5721 31.7422 15.1719 31.6167 14.7826C31.4666 14.3165 30.9675 14.06 30.5005 14.2107C30.034 14.3611 29.7779 14.8608 29.9285 15.3269Z" fill="white"/>
<path d="M20.8911 8.48289C20.8902 8.97268 21.2866 9.37046 21.7764 9.37135C24.3373 9.37578 26.8455 10.6017 28.4861 12.6511C28.6612 12.8697 28.9189 12.9837 29.1792 12.9837C29.3734 12.9837 29.5692 12.9201 29.7328 12.7893C30.1153 12.4831 30.177 11.925 29.871 11.5425C27.8978 9.07756 24.8728 7.60263 21.7795 7.59753C21.7788 7.59753 21.7784 7.59753 21.778 7.59753C21.2888 7.59753 20.8919 7.99354 20.8911 8.48289Z" fill="white"/>
<path d="M24.7349 38.4002H20.7498C20.26 38.4002 19.8629 38.7973 19.8629 39.2871C19.8629 39.7769 20.26 40.174 20.7498 40.174H24.7349C25.2247 40.174 25.6218 39.7769 25.6218 39.2871C25.6218 38.7973 25.2247 38.4002 24.7349 38.4002Z" fill="white"/>
<path d="M83.7401 44.9799L81.0202 42.2598C79.2797 40.5192 76.5673 40.3297 74.6145 41.6882L72.8374 39.9113C73.1048 39.9468 73.2851 39.9703 73.2946 39.9703C73.4873 39.9703 73.676 39.9075 73.8312 39.7898C74.0185 39.6472 74.1414 39.4363 74.1733 39.2033L76.3797 23.0343C76.446 22.5492 76.1065 22.102 75.6212 22.0357L71.8084 21.5142C69.3694 21.1814 67.0954 22.6734 66.3625 24.9368L57.7551 23.7627C57.1456 23.6793 56.5374 23.6552 55.9361 23.6849V19.7641C55.9361 17.8965 55.209 16.1429 53.8904 14.8271C52.5754 13.509 50.8226 12.7828 48.9548 12.7828C47.0903 12.7828 45.3373 13.509 44.0187 14.828C42.7003 16.1471 41.9748 17.9003 41.9764 19.7641V24.4988H38.5458L35.0279 20.9807C35.2851 19.9328 35.4244 18.839 35.4244 17.7129C35.4244 10.1516 29.2728 4 21.7115 4C14.8213 4 9.10409 9.10858 8.14291 15.7364L1.82592 22.0534C0.64855 23.2308 0 24.7964 0 26.4618C0 28.127 0.64855 29.6926 1.82614 30.8702L16.1499 45.1939V46.6781C16.1499 52.0566 20.5254 56.4321 25.9037 56.4321H27.2963L27.9967 57.1321C31.4169 60.5522 35.9077 62.2617 40.4001 62.2617C44.8916 62.2617 49.3847 60.5514 52.8037 57.1321L61.5748 48.393L70.947 57.7731C71.1201 57.9463 71.3472 58.033 71.574 58.033C71.8008 58.033 72.0281 57.9463 72.201 57.7731L83.7401 46.234C84.0865 45.8879 84.0865 45.3261 83.7401 44.9799ZM62.4617 46.7715V40.0578C63.8539 39.8694 65.1974 39.2423 66.2648 38.1747C66.6617 37.778 67.0002 37.3388 67.282 36.8645L71.1164 40.6986L63.7526 48.0624L62.4617 46.7715ZM52.1355 38.088L48.2739 34.2264L48.5304 32.3491C48.5315 32.3409 48.5331 32.3331 48.5344 32.3251C49.0521 32.5788 49.6022 32.765 50.1807 32.8788C50.6129 32.9637 51.0466 33.0056 51.4774 33.0056C52.5128 33.0056 53.5286 32.759 54.458 32.2879L56.0607 34.3965C55.5711 34.7337 55.1073 35.1162 54.678 35.5457L52.1355 38.088ZM56.2578 25.4483C56.3722 26.0596 56.3698 26.6789 56.2489 27.2935C55.9977 28.5717 55.2638 29.6755 54.1822 30.4019C53.1006 31.1282 51.8015 31.3903 50.5228 31.1384C49.9747 31.0307 49.4612 30.8353 48.9903 30.558C49.5158 29.1866 50.4111 27.9842 51.6091 27.0733C52.9678 26.0403 54.5835 25.482 56.2578 25.4483ZM61.5748 32.6885C60.191 32.6885 58.8524 32.9774 57.6241 33.522L55.9248 31.2863C56.9866 30.3302 57.709 29.0629 57.9895 27.6358C58.123 26.9569 58.1485 26.274 58.0711 25.5962L62.9768 26.2653L62.1001 32.7036C61.9258 32.6941 61.7508 32.6885 61.5748 32.6885ZM61.5748 34.4623C63.1278 34.4623 64.612 34.9049 65.8867 35.7271C65.6577 36.1654 65.3654 36.5656 65.0107 36.9204C63.1091 38.8217 60.0152 38.8219 58.1136 36.9204C57.7604 36.5672 57.4704 36.171 57.2436 35.7393C58.5227 34.9091 60.0141 34.4623 61.5748 34.4623ZM72.5361 38.0845L71.1332 37.8927L73.1013 23.4813L74.5026 23.6729L72.5361 38.0845ZM66.924 26.8035C67.4115 26.8671 67.8563 26.5299 67.9224 26.0445C68.1534 24.3514 69.6618 23.1441 71.3423 23.2527L69.5201 36.594L68.4716 35.5455C67.1798 34.2537 65.5892 33.3706 63.8559 32.957L64.7344 26.5046L66.924 26.8035ZM50.5357 25.6611C49.392 26.5305 48.4741 27.6179 47.8202 28.8504L43.7504 24.7807C43.7504 24.7807 43.7526 19.6248 43.7553 19.5559H54.1572C54.1598 19.6253 54.1623 23.9394 54.1623 23.9394C52.8636 24.2503 51.631 24.8285 50.5357 25.6611ZM48.955 14.5568C50.3481 14.5568 51.655 15.0976 52.6363 16.0817C53.1319 16.5759 53.515 17.1533 53.7736 17.7821H44.1384C44.3965 17.1539 44.779 16.577 45.2737 16.0821C46.2568 15.0985 47.5643 14.5568 48.955 14.5568ZM42.734 26.2727C42.734 26.2727 47.0544 30.5837 47.0978 30.6138C46.9528 31.099 46.8428 31.5981 46.7732 32.1094L46.6992 32.6519L40.3201 26.2729H42.734V26.2727ZM50.8814 39.3423L48.1506 42.0729L32.3858 26.3083C33.2191 25.2758 33.9049 24.1206 34.4133 22.874L50.8814 39.3423ZM33.651 17.7129C33.651 18.1258 33.6299 18.5337 33.5887 18.9359C30.6796 21.7627 26.7509 22.9576 23.3633 22.0794C23.2984 20.9674 22.8396 19.9299 22.0452 19.1359C21.1869 18.2774 20.0456 17.8047 18.8319 17.8047C18.6372 17.8047 18.4452 17.8213 18.2552 17.8453C16.5854 14.2231 17.6829 9.50081 21.0505 6.13345C21.1751 6.00884 21.2973 5.89288 21.4179 5.78157C21.5159 5.77913 21.6135 5.77403 21.7121 5.77403C28.295 5.77403 33.651 11.1298 33.651 17.7129ZM18.8319 19.5785C19.5718 19.5785 20.2678 19.8668 20.7911 20.39C21.3144 20.9133 21.6026 21.6093 21.6026 22.3494C21.6026 23.0895 21.3144 23.7853 20.7911 24.3086C20.2678 24.8319 19.5718 25.1201 18.8319 25.1201C18.0918 25.1201 17.3958 24.8319 16.8725 24.3084C16.3492 23.7853 16.061 23.0895 16.061 22.3494C16.061 21.6093 16.3492 20.9133 16.8725 20.39C17.3958 19.8668 18.0918 19.5785 18.8319 19.5785ZM18.6459 6.17492C15.7229 9.87819 14.9018 14.609 16.5647 18.4142C16.224 18.6113 15.9042 18.8501 15.6184 19.1362C14.7599 19.9945 14.2872 21.1359 14.2872 22.3496C14.2872 23.5634 14.7601 24.7048 15.6184 25.5629C16.4767 26.4214 17.6179 26.8942 18.8319 26.8942C20.0459 26.8942 21.1869 26.4214 22.0452 25.5631C22.5372 25.0711 22.8975 24.4844 23.1199 23.8461C23.9343 24.0394 24.7715 24.1357 25.6172 24.1357C28.1231 24.1357 30.6985 23.3035 32.9466 21.7516C31.2874 26.3534 26.8784 29.6524 21.7121 29.6524C15.1288 29.6524 9.77282 24.2966 9.77282 17.7131C9.7726 12.1897 13.5437 7.53188 18.6459 6.17492ZM16.1499 33.9318L4.30305 22.0849L8.01542 18.3725C8.26752 23.6718 11.5429 28.1897 16.1497 30.2429L16.1499 33.9318ZM6.71676 33.2524L9.83956 30.1296L11.2382 31.5282L8.11541 34.651L6.71676 33.2524ZM1.77381 26.4618C1.77381 25.2851 2.22791 24.1793 3.05051 23.3405L8.58547 28.8755L5.46268 31.9983L3.08045 29.6161C2.23789 28.7735 1.77381 27.6531 1.77381 26.4618ZM9.3695 35.9051L12.4923 32.7823L16.1499 36.4399V42.6855L9.3695 35.9051ZM18.0461 48.0606C19.7572 47.2788 21.7849 47.6225 23.146 48.9834C24.5826 50.42 24.8684 52.6623 23.9088 54.4058C20.9077 53.6304 18.5878 51.1477 18.0461 48.0606ZM25.7593 54.6548C26.593 52.6912 26.3797 50.4411 25.1717 48.6646L29.5916 44.2445H34.847C34.9166 44.2445 34.9856 44.2471 35.0547 44.2498V54.6532C34.9858 54.6556 25.8074 54.6556 25.7593 54.6548ZM40.054 49.4515C40.054 51.6213 38.7197 53.4845 36.8286 54.2656V44.6369C38.7194 45.4183 40.054 47.2817 40.054 49.4515ZM51.5497 55.878C45.5923 61.8347 36.0155 62.0196 29.834 56.4321H34.847C38.6962 56.4321 41.8276 53.3007 41.8276 49.4515C41.8276 45.6023 38.6962 42.4707 34.847 42.4707H30.1114V32.6349C30.1114 32.1451 29.7142 31.748 29.2244 31.748C28.7347 31.748 28.3375 32.1451 28.3375 32.6349V42.9904L23.9811 47.3469C22.2786 45.9207 19.9862 45.5105 17.9237 46.2045V30.8897C19.1279 31.2362 20.3977 31.426 21.7119 31.426C25.3835 31.426 28.72 29.9728 31.1838 27.6148L46.8963 43.327L44.7475 45.4757C44.401 45.8221 44.401 46.3837 44.7475 46.7298C45.0936 47.0764 45.6557 47.0764 46.0016 46.7298L55.8511 36.8805C56.1303 37.3475 56.4658 37.7811 56.8591 38.1745C57.9334 39.2488 59.2868 39.8765 60.6879 40.0607V46.7715L51.5497 55.878ZM65.0069 49.3162L72.3707 41.9527L73.9321 43.5141C74.2786 43.8607 74.8403 43.8607 75.1861 43.5141C76.3943 42.3064 78.3251 42.2574 79.5961 43.3605L69.3193 53.637L65.0069 49.3162ZM71.574 55.8918L70.5733 54.8911L80.8584 44.6063L81.8588 45.607L71.574 55.8918Z" fill="white"/>
</svg>
