<svg width="67" height="66" viewBox="0 0 67 66" fill="none" xmlns="http://www.w3.org/2000/svg">
<path d="M37.5672 66L32.1578 53.4794C37.3681 51.5834 42.2466 49.0335 46.7599 46.0586L37.5672 66ZM12.7105 34.3226L0 28.994L20.2438 19.9387C17.2239 24.3846 14.6353 29.1902 12.7105 34.3226ZM65.7095 1.27225C65.7095 1.27225 49.2821 -5.66146 30.4985 12.8448C23.2306 20.0041 18.8832 27.8825 16.0623 34.7803C15.1331 37.2321 15.7636 39.9128 17.5889 41.7434L24.6577 48.6739C26.4829 50.5046 29.2042 51.093 31.6932 50.1777C40.0514 47.0384 47.6405 42.192 53.9614 35.9572C72.7451 17.4542 65.7095 1.27225 65.7095 1.27225ZM42.2466 24.3846C39.658 21.8348 39.658 17.683 42.2466 15.1331C44.8351 12.5833 49.0498 12.5833 51.6384 15.1331C54.1937 17.683 54.2269 21.8348 51.6384 24.3846C49.0498 26.9345 44.8351 26.9345 42.2466 24.3846ZM14.7017 65.3789L26.7816 53.4794C25.6533 53.1852 24.5581 52.6948 23.5625 52.0083L10.0224 65.3789H14.7017ZM0.630546 65.3789H5.30986L21.1399 49.8181L16.4274 45.2087L0.630546 60.7695V65.3789ZM0.630546 56.1274L14.2039 42.7895C13.507 41.8088 13.0092 40.7627 12.7105 39.6185L0.630546 51.518V56.1274Z" fill="white"/>
</svg>
