<svg width="186" height="186" viewBox="0 0 186 186" fill="none" xmlns="http://www.w3.org/2000/svg">
<circle cx="93" cy="93" r="90.5" fill="#141414" stroke="#0AC6FF" stroke-width="5"/>
<path d="M86 121H100V91.6L111.2 102.8L121 93L93 65L65 93L74.8 102.8L86 91.6V121ZM93 163C83.3167 163 74.2167 161.161 65.7 157.484C57.1833 153.807 49.775 148.82 43.475 142.525C37.175 136.225 32.1887 128.817 28.516 120.3C24.8433 111.783 23.0047 102.683 23 93C23 83.3167 24.8387 74.2167 28.516 65.7C32.1933 57.1833 37.1797 49.775 43.475 43.475C49.775 37.175 57.1833 32.1887 65.7 28.516C74.2167 24.8433 83.3167 23.0047 93 23C102.683 23 111.783 24.8387 120.3 28.516C128.817 32.1933 136.225 37.1797 142.525 43.475C148.825 49.775 153.814 57.1833 157.491 65.7C161.168 74.2167 163.005 83.3167 163 93C163 102.683 161.161 111.783 157.484 120.3C153.807 128.817 148.82 136.225 142.525 142.525C136.225 148.825 128.817 153.814 120.3 157.491C111.783 161.168 102.683 163.005 93 163ZM93 149C108.633 149 121.875 143.575 132.725 132.725C143.575 121.875 149 108.633 149 93C149 77.3667 143.575 64.125 132.725 53.275C121.875 42.425 108.633 37 93 37C77.3667 37 64.125 42.425 53.275 53.275C42.425 64.125 37 77.3667 37 93C37 108.633 42.425 121.875 53.275 132.725C64.125 143.575 77.3667 149 93 149Z" fill="#0AC6FF"/>
</svg>
